<svg xmlns="http://www.w3.org/2000/svg" shape-rendering="geometricPrecision" text-rendering="geometricPrecision" image-rendering="optimizeQuality" fill-rule="evenodd" clip-rule="evenodd" viewBox="0 0 512 512"><path fill-rule="nonzero" d="M256 0c70.68 0 134.69 28.66 181.02 74.98C483.34 121.31 512 185.32 512 256c0 70.69-28.66 134.69-74.98 181.02C390.69 483.34 326.68 512 256 512s-134.69-28.66-181.01-74.98C28.66 390.69 0 326.69 0 256c0-70.68 28.66-134.69 74.99-181.02C121.31 28.66 185.32 0 256 0zm-27.1 249.22c5.55 23.68 27.36 40.92 27.36 54.87 0 7.43-2.68 13.8-8.05 19.11-5.39 5.31-11.81 7.98-19.29 7.98-7.46 0-13.87-2.67-19.26-7.98-5.37-5.31-8.06-11.68-8.06-19.11 0-14.05 21.82-31.06 27.3-54.87zm63.79-48.23v195.06c0 .67-.12 1.31-.33 1.9h55.35l-.39-196.96h-54.63zm-10.76 196.96a5.66 5.66 0 0 1-.33-1.9V200.99H164.32v196.96h117.61zm27.77-256.81h9.34l.27-27.09H197.52v27.09h6.63v11.33h-7.36l-.36.56-26.95 36.87h114.75l29.95-37.43h-4.48v-11.33zm-23.53 0h12.09v11.33h-12.09v-11.33zm-23.52 0h12.09v11.33h-12.09v-11.33zm-23.53 0h12.09v11.33h-12.09v-11.33zm-23.53 0h12.09v11.33h-12.09v-11.33zm108.19 16.99-25.42 31.77h44.54l-19.12-31.77zm-137.36-10.15V108.5c0-3.06 2.49-5.54 5.55-5.54H324.9a5.54 5.54 0 0 1 5.54 5.54l-.41 38.53 27.55 45.77c.61 1.02.86 2.15.78 3.25l.4 207.44c0 3.05-2.47 5.53-5.52 5.53l-194.47.02c-3.06 0-5.54-2.48-5.54-5.55V195.18c0-1.38.5-2.64 1.33-3.6l31.86-43.6zm244.36-31.37-61.63 61.68-14.43-31.34 54.08-54.12C368.84 55.39 315.1 32.46 256 32.46c-61.73 0-117.63 25.02-158.07 65.47C57.48 138.38 32.46 194.27 32.46 256c0 59.16 22.97 112.94 60.48 152.92l40.43-40.45v45.77l-16.63 16.64c38.19 30.45 86.6 48.67 139.26 48.67 61.73 0 117.63-25.03 158.08-65.47 40.44-40.45 65.46-96.34 65.46-158.08 0-52.72-18.24-101.17-48.76-139.39z"/></svg>