<svg id="Layer_1" data-name="Layer 1" xmlns="http://www.w3.org/2000/svg" viewBox="0 0 81.02 122.88"><defs><style>.cls-1{fill:#fff;}.cls-1,.cls-2{fill-rule:evenodd;}</style></defs><title>gluten-free</title><path d="M14.57,122.75V110.87a4.46,4.46,0,0,1,.36-1.91,3.19,3.19,0,0,1,.94-1.2,3.58,3.58,0,0,1,1.27-.62A5.47,5.47,0,0,1,18.5,107h1.83c.78,0,1.63,0,2.54.08s1.78.14,2.61.25v3.46H19.69a.92.92,0,0,0-.76.29.91.91,0,0,0-.23.61v1.78l5.71.21v3.28l-5.71.21v5.61Zm-9.83-23a4.16,4.16,0,0,1-2.39-.63A4.13,4.13,0,0,1,.91,97.36,9.14,9.14,0,0,1,.2,94.82,23,23,0,0,1,0,91.74a21,21,0,0,1,.24-3.32,7.06,7.06,0,0,1,.9-2.55A4.26,4.26,0,0,1,3,84.23a7.38,7.38,0,0,1,3.14-.57,19.12,19.12,0,0,1,2.16.1A13.59,13.59,0,0,1,10,84c.52.12,1.07.26,1.64.42v3.21a11.55,11.55,0,0,0-1.19-.15c-.49-.05-1-.08-1.62-.11s-1.22,0-1.89,0a3.53,3.53,0,0,0-1.83.37,1.91,1.91,0,0,0-.79,1.33,15.18,15.18,0,0,0-.19,2.68,17.12,17.12,0,0,0,.11,2.13,3.75,3.75,0,0,0,.35,1.27,1.28,1.28,0,0,0,.63.61,2.11,2.11,0,0,0,.91.17,11.67,11.67,0,0,0,1.4-.07c.42,0,.73-.1.94-.14v-2H6.27V90.4c.31,0,.68-.08,1.12-.11l1.34-.07,1.26,0h1.35c.39,0,.75,0,1.07,0V99.6H9.31l-.55-1a8,8,0,0,1-1.6.74,6.86,6.86,0,0,1-2.42.41Zm14.11-.11a5.58,5.58,0,0,1-2.33-.42,2.69,2.69,0,0,1-1.34-1.34,5.47,5.47,0,0,1-.43-2.34V83.81h4.13v11a1.42,1.42,0,0,0,.11.61.76.76,0,0,0,.37.38,1.64,1.64,0,0,0,.62.11h4.59v3.7ZM32,99.71a13.71,13.71,0,0,1-2.45-.21,5.81,5.81,0,0,1-2-.79,3.84,3.84,0,0,1-1.4-1.62,6.29,6.29,0,0,1-.5-2.7V83.81h4.13V94.37a1.56,1.56,0,0,0,.26.92,1.61,1.61,0,0,0,.78.54,4.33,4.33,0,0,0,2.47,0,1.58,1.58,0,0,0,.77-.54,1.5,1.5,0,0,0,.27-.92V83.81h4.12V94.39a6.29,6.29,0,0,1-.5,2.7,3.82,3.82,0,0,1-1.39,1.62,5.91,5.91,0,0,1-2,.79,13.78,13.78,0,0,1-2.47.21ZM43.7,99.6V87.51h-4v-3.7H51.8v3.7h-4V99.6Zm13.56.13A8.69,8.69,0,0,1,56,99.62a4.24,4.24,0,0,1-1.38-.46A3,3,0,0,1,53.54,98,4.14,4.14,0,0,1,53.1,96V87.72a4.46,4.46,0,0,1,.36-1.91,3.1,3.1,0,0,1,.94-1.2A3.35,3.35,0,0,1,55.67,84,5.47,5.47,0,0,1,57,83.81c1.19,0,2.21,0,3.07,0l2.23.12c.63,0,1.19.09,1.67.15v3.48H58.31a1.19,1.19,0,0,0-.81.24.84.84,0,0,0-.28.7v1.32l5.72.21v3.27l-5.72.21v1.2a1.4,1.4,0,0,0,.12.62.73.73,0,0,0,.33.36.94.94,0,0,0,.47.12H64v3.49c-.61.08-1.3.15-2.08.21s-1.57.1-2.38.13-1.57,0-2.28,0Zm8.68-.13V83.81h3.27l5.55,8.8v-8.8h4.12V99.6H75.61l-5.55-8.8v8.8ZM27.18,122.75V107h6.73a6.81,6.81,0,0,1,1.92.25,3.63,3.63,0,0,1,1.51.87,4.05,4.05,0,0,1,1,1.62,8.14,8.14,0,0,1,.35,2.57,7.69,7.69,0,0,1-.17,1.7,4.87,4.87,0,0,1-.46,1.23,3.34,3.34,0,0,1-.68.84,5.51,5.51,0,0,1-.84.59l2.74,6.12H35.08l-2.21-5.44H31.3v5.44ZM31.3,114h1.87a1.79,1.79,0,0,0,.6-.1.94.94,0,0,0,.43-.31,1.37,1.37,0,0,0,.27-.54,3.59,3.59,0,0,0,.08-.8,3.4,3.4,0,0,0-.08-.78,1.14,1.14,0,0,0-.27-.5,1.12,1.12,0,0,0-.43-.27,2.13,2.13,0,0,0-.6-.08H31.3V114ZM45,122.88a8.82,8.82,0,0,1-1.23-.11,4.24,4.24,0,0,1-1.38-.46,3,3,0,0,1-1.11-1.12,4,4,0,0,1-.45-2.07v-8.25a4.46,4.46,0,0,1,.36-1.91,3.1,3.1,0,0,1,.94-1.2,3.5,3.5,0,0,1,1.27-.62,5.47,5.47,0,0,1,1.36-.18c1.19,0,2.22,0,3.07.05l2.24.12c.63,0,1.18.09,1.66.15v3.48H46a1.19,1.19,0,0,0-.81.24.87.87,0,0,0-.28.7V113l5.72.21v3.27l-5.72.22v1.19a1.4,1.4,0,0,0,.12.62.73.73,0,0,0,.33.36.94.94,0,0,0,.47.12h5.86v3.49c-.6.08-1.3.15-2.08.21s-1.57.1-2.38.13-1.56,0-2.27,0Zm12.62,0a8.57,8.57,0,0,1-1.22-.11,4.24,4.24,0,0,1-1.38-.46,3,3,0,0,1-1.12-1.12,4.14,4.14,0,0,1-.44-2.07v-8.25a4.46,4.46,0,0,1,.36-1.91,3.17,3.17,0,0,1,.93-1.2,3.62,3.62,0,0,1,1.28-.62,5.47,5.47,0,0,1,1.36-.18c1.19,0,2.21,0,3.07.05l2.23.12c.63,0,1.19.09,1.67.15v3.48h-5.7a1.18,1.18,0,0,0-.8.24.84.84,0,0,0-.28.7V113l5.72.21v3.27l-5.72.22v1.19a1.4,1.4,0,0,0,.12.62.65.65,0,0,0,.33.36.9.9,0,0,0,.46.12h5.87v3.49c-.61.08-1.3.15-2.08.21s-1.58.1-2.38.13-1.57,0-2.28,0Z"/><path class="cls-1" d="M42.39,5.3A33.34,33.34,0,1,1,9.05,38.63,33.34,33.34,0,0,1,42.39,5.3Z"/><path class="cls-2" d="M51.58,28.58c6.34,1.2,10.46-1.85,11.24-11.19-3.74,0-13.11,1.51-11.24,11.19ZM39.52,43c4,4.63,6.88,5.71,14.56,0-5-2.89-9.3-6.83-14.56,0Zm7.3-7.31c3.69,4.31,6.42,5.32,13.56,0-4.63-2.69-8.65-6.36-13.56,0ZM28.91,48.88c-5.21-4.46-6.43-7.76,0-16.4,3.26,5.61,7.7,10.47,0,16.4Zm8.26-8.23c-4.63-3.95-5.71-6.88,0-14.56,2.89,5,6.83,9.3,0,14.56Zm7.31-7.3c-4.3-3.69-5.31-6.41,0-13.56,2.7,4.64,6.37,8.66,0,13.56ZM31.29,51.26c4.46,5.21,7.76,6.43,16.4,0-5.61-3.26-10.47-7.7-16.4,0Zm-5.07.37A1.64,1.64,0,0,1,28.54,54l-3.71,3.72a1.64,1.64,0,0,1-2.32-2.33l3.71-3.71Z"/><path d="M42.39,0a38.28,38.28,0,0,0-7.55.74,37.56,37.56,0,0,0-7.23,2.19A38.2,38.2,0,0,0,20.93,6.5a38.77,38.77,0,0,0-5.86,4.81A38.63,38.63,0,0,0,6.68,23.86a38.66,38.66,0,0,0,3.57,36.23A39.22,39.22,0,0,0,15.07,66l.06.06a39.08,39.08,0,0,0,5.8,4.76,39.59,39.59,0,0,0,6.68,3.57,38.68,38.68,0,0,0,29.55,0A38.63,38.63,0,0,0,69.71,66,38.75,38.75,0,0,0,78.09,53.4a37.46,37.46,0,0,0,2.19-7.22,38.83,38.83,0,0,0,0-15.09,37.34,37.34,0,0,0-2.19-7.23,38.2,38.2,0,0,0-3.57-6.68,39.24,39.24,0,0,0-4.81-5.87A38.63,38.63,0,0,0,63.84,6.5a38.2,38.2,0,0,0-6.68-3.57A37.34,37.34,0,0,0,49.93.74,38.26,38.26,0,0,0,42.39,0ZM17.14,19.33,61.69,63.88a1.17,1.17,0,0,1,0,1.66.83.83,0,0,1-.21.17,33,33,0,0,1-3.9,2.37,31.46,31.46,0,0,1-4.25,1.83A32.17,32.17,0,0,1,48,71.3a34.1,34.1,0,0,1-5.56.46,33,33,0,0,1-6.48-.63A33,33,0,0,1,24,66.19a33.49,33.49,0,0,1-5-4.13,33.6,33.6,0,0,1-7.2-10.76,33.08,33.08,0,0,1-2.5-12.54v-.13a32.91,32.91,0,0,1,.47-5.55,32.54,32.54,0,0,1,1.39-5.39,31.46,31.46,0,0,1,1.83-4.25,33.18,33.18,0,0,1,2.41-4A1.17,1.17,0,0,1,17,19.2l.15.13Zm48.7,40.91L20.78,15.18a1.17,1.17,0,0,1,0-1.66l.13-.12a33.12,33.12,0,0,1,4.35-3.13,32.26,32.26,0,0,1,4.85-2.42,32.75,32.75,0,0,1,6-1.76,34.17,34.17,0,0,1,6.27-.59,33.64,33.64,0,0,1,6.47.63A33.19,33.19,0,0,1,55.06,8a32.7,32.7,0,0,1,5.72,3.06A33.11,33.11,0,0,1,74.89,32.16a33.64,33.64,0,0,1,.63,6.47,34.17,34.17,0,0,1-.59,6.27,32.75,32.75,0,0,1-1.76,6,33.28,33.28,0,0,1-5.61,9.26,1.17,1.17,0,0,1-1.65.13l-.07-.06Z"/></svg>